<?xml version="1.0" encoding="UTF-8" standalone="no"?>
<svg
   version="1.0"
   width="426.000000pt"
   height="445.000000pt"
   viewBox="0 0 426.000000 445.000000"
   preserveAspectRatio="xMidYMid meet"
   id="svg306"
   xmlns="http://www.w3.org/2000/svg"
   xmlns:svg="http://www.w3.org/2000/svg">
  <defs
     id="defs310" />
  <g
     transform="translate(0.000000,445.000000) scale(0.100000,-0.100000)"
     fill="#000000"
     stroke="none"
     id="g304">
    <path
       d="M1975 3990 c-528 -83 -926 -447 -1062 -970 -35 -133 -43 -355 -18 -500 90 -540 507 -962 1042 -1055 110 -19 326 -19 436 0 252 44 477 158 661 335 207 200 335 440 381 720 25 145 17 367 -18 500 -130 499 -491 848 -992 957 -84 18 -346 26 -430 13z m123 -296 c38 -26 26 -63 -32 -101 -105 -68 -147 -134 -147 -228 0 -147 94 -224 423 -344 260 -95 399 -172 491 -271 130 -140 175 -349 120 -559 -39 -152 -162 -296 -315 -370 -109 -53 -181 -71 -304 -78 -117 -7 -144 2 -144 46 0 35 10 44 83 71 110 41 170 131 170 255 0 97 -27 148 -113 216 -65 52 -119 80 -270 144 -278 118 -327 141 -410 196 -196 131 -289 290 -290 494 0 143 46 250 150 348 97 92 223 149 402 182 102 18 159 18 186 -1z m512 6 c98 -13 148 -35 172 -76 12 -20 25 -99 43 -248 24 -200 25 -220 10 -242 -31 -47 -71 -26 -101 53 -63 171 -210 331 -371 404 -59 26 -63 30 -63 62 0 18 5 38 12 45 15 15 181 16 298 2z m-1133 -1312 c5 -7 20 -41 32 -75 63 -172 203 -337 346 -408 123 -61 147 -90 109 -140 -13 -17 -25 -20 -86 -17 -93 3 -232 33 -337 71 -159 58 -201 96 -201 184 0 50 57 352 71 379 11 21 52 24 66 6z"
       id="path226" />
  </g>
</svg>
